<svg width="82" height="73" viewBox="0 0 82 73" fill="none" xmlns="http://www.w3.org/2000/svg">
<path fill-rule="evenodd" clip-rule="evenodd" d="M41 12.21C41.5743 12.21 42.04 12.6756 42.04 13.25V16.0843H49.6673C50.2417 16.0843 50.7073 16.55 50.7073 17.1243C50.7073 17.6987 50.2417 18.1643 49.6673 18.1643H38.8326C37.3493 18.1643 35.947 18.6923 34.9297 19.602C33.9161 20.5083 33.3726 21.711 33.3726 22.9368C33.3726 24.1627 33.9161 25.3653 34.9297 26.2717C35.947 27.1814 37.3493 27.7093 38.8326 27.7093H43.1673C45.1319 27.7093 47.0361 28.4061 48.4568 29.6765C49.8812 30.9503 50.7073 32.7045 50.7073 34.5618C50.7073 35.4789 50.5051 36.3837 50.1162 37.2233C49.7275 38.0625 49.1615 38.817 48.4568 39.4471C47.7523 40.0771 46.922 40.5715 46.016 40.9071C45.11 41.2427 44.1423 41.4143 43.1673 41.4143H42.04V44.2506C42.04 44.825 41.5743 45.2906 41 45.2906C40.4256 45.2906 39.96 44.825 39.96 44.2506V41.4143H32.3326C31.7582 41.4143 31.2926 40.9487 31.2926 40.3743C31.2926 39.8 31.7582 39.3343 32.3326 39.3343H43.1673C43.8995 39.3343 44.6223 39.2053 45.2935 38.9566C45.9647 38.708 46.5676 38.3462 47.0703 37.8967C47.5727 37.4473 47.9643 36.9203 48.2289 36.3491C48.4933 35.7783 48.6273 35.1714 48.6273 34.5618C48.6273 33.336 48.0838 32.1333 47.0703 31.227C46.0529 30.3173 44.6506 29.7893 43.1673 29.7893H38.8326C36.8681 29.7893 34.9638 29.0925 33.5432 27.8221C32.1187 26.5483 31.2926 24.7941 31.2926 22.9368C31.2926 21.0795 32.1187 19.3253 33.5432 18.0515C34.9638 16.7811 36.8681 16.0843 38.8326 16.0843H39.96V13.25C39.96 12.6756 40.4256 12.21 41 12.21Z" fill="#344054"/>
<path fill-rule="evenodd" clip-rule="evenodd" d="M0.959961 5.49934C0.959961 2.67969 3.4786 0.584961 6.3326 0.584961H75.6673C78.5213 0.584961 81.04 2.67969 81.04 5.49934V51.9993C81.04 54.8206 78.5217 56.9156 75.6673 56.9156H6.3326C3.47792 56.9156 0.959961 54.8184 0.959961 51.9993V5.49934ZM6.3326 2.66496C4.4026 2.66496 3.03996 4.041 3.03996 5.49934V51.9993C3.03996 53.4583 4.40328 54.8356 6.3326 54.8356H75.6673C77.597 54.8356 78.96 53.4599 78.96 51.9993V5.49934C78.96 4.041 77.5973 2.66496 75.6673 2.66496H6.3326ZM13.96 71.375C13.96 70.8006 14.4256 70.335 15 70.335H67C67.5743 70.335 68.04 70.8006 68.04 71.375C68.04 71.9493 67.5743 72.415 67 72.415H15C14.4256 72.415 13.96 71.9493 13.96 71.375Z" fill="#0297D4"/>
</svg>
